<?xml version="1.0" encoding="utf-8"?>
<!-- Generator: Adobe Illustrator 23.0.1, SVG Export Plug-In . SVG Version: 6.00 Build 0)  -->
<svg version="1.1" id="Layer_1" xmlns="http://www.w3.org/2000/svg" xmlns:xlink="http://www.w3.org/1999/xlink" x="0px" y="0px"
	 viewBox="0 0 282.39 597.56" style="enable-background:new 0 0 282.39 597.56;" xml:space="preserve">
<style type="text/css">
	.st0{fill:#CAC8ED;}
	.st1{fill:#9B9B7B;}
</style>
<ellipse id="circle" class="st0" cx="141.19" cy="298.78" rx="141.19" ry="298.78"/>
<g>
	<path d="M140.69,544.65c-1.37-1.13-2.34-2.27-3.18-3.4c-0.84-1.13-1.5-2.27-2.05-3.4c-1.07-2.27-1.67-4.54-1.88-6.8
		c-0.11-1.13-0.09-2.27-0.09-3.4l0.01-3.4l0.01-6.8l0.04-27.21l0.23-54.42c0.26-36.28,0.58-72.57,1.14-108.85
		c0.24-18.14,0.58-36.28,0.93-54.42l1.21-54.42c1.02-36.28,1.97-72.57,3.63-108.85h1c1.66,36.28,2.61,72.57,3.63,108.85l1.21,54.42
		c0.34,18.14,0.68,36.28,0.93,54.42c0.56,36.28,0.88,72.57,1.14,108.85l0.23,54.42l0.04,27.21l0.01,6.8l0.01,3.4
		c0,1.13,0.02,2.27-0.09,3.4c-0.21,2.27-0.81,4.54-1.88,6.8c-0.55,1.13-1.21,2.27-2.05,3.4c-0.84,1.13-1.81,2.27-3.18,3.4H140.69z"
		/>
</g>
<g>
	<path d="M74.81,544.15c11.19-3.38,22.39-5.05,33.58-6.29c11.19-1.17,22.39-1.66,33.58-1.61c11.19,0.05,22.39,0.57,33.58,1.76
		c5.6,0.62,11.19,1.35,16.79,2.33c5.6,1,11.19,2.12,16.79,3.81v1c-5.6,1.69-11.19,2.81-16.79,3.81c-5.6,0.98-11.19,1.71-16.79,2.33
		c-11.19,1.19-22.39,1.71-33.58,1.76c-11.19,0.05-22.39-0.44-33.58-1.61c-11.19-1.24-22.39-2.91-33.58-6.29V544.15z"/>
</g>
<polygon id="lamp" class="st1" points="70.89,48.83 46.49,169.69 141.19,169.69 235.9,169.69 205.11,48.83 "/>
<g>
	<path d="M88.16,169.69v44.69l-0.5-0.5l0.09-0.32l0.09-0.24l0.18-0.48c0.12-0.23,0.24-0.46,0.36-0.59c0.24-0.29,0.49-0.39,0.73-0.33
		c0.24,0.06,0.49,0.24,0.73,0.63c0.12,0.17,0.24,0.42,0.36,0.71l0.18,0.52l0.09,0.27l0.09,0.34l-0.09,0.34l-0.09,0.27l-0.18,0.52
		c-0.12,0.28-0.24,0.54-0.36,0.71c-0.24,0.39-0.49,0.57-0.73,0.63c-0.24,0.06-0.49-0.05-0.73-0.33c-0.12-0.13-0.24-0.36-0.36-0.59
		l-0.18-0.48l-0.09-0.24l-0.09-0.32l-0.5-0.5v-44.69H88.16z"/>
</g>
</svg>
