<?xml version="1.0" encoding="utf-8"?>
<!-- Generator: Adobe Illustrator 23.0.1, SVG Export Plug-In . SVG Version: 6.00 Build 0)  -->
<svg version="1.1" id="Layer_1" xmlns="http://www.w3.org/2000/svg" xmlns:xlink="http://www.w3.org/1999/xlink" x="0px" y="0px"
	 viewBox="0 0 534.48 628.49" style="enable-background:new 0 0 534.48 628.49;" xml:space="preserve">
<style type="text/css">
	.st0{fill:#D111C3;}
	.st1{fill:#537B96;}
	.st2{fill:#90DDCE;}
	.st3{fill:none;}
</style>
<polygon id="backpolygon" class="st0" points="209.61,502.85 131.56,367.66 209.61,232.48 365.7,232.48 443.75,367.66 365.7,502.85 
	"/>
<polygon id="frontpolygon" class="st1" points="209.61,464.86 131.56,329.68 209.61,194.5 365.7,194.5 443.75,329.68 365.7,464.86 
	"/>
<rect id="diamond" x="222.76" y="157.57" transform="matrix(0.7071 0.7071 -0.7071 0.7071 241.5616 -138.2447)" class="st0" width="129.79" height="129.79"/>
<g id="curve">
	<path class="st2" d="M419.8,263.99c-0.54,8.14-2.35,16.14-5.29,23.54c-2.93,7.41-6.93,14.22-11.64,20.24
		c-4.74,6.02-10.16,11.28-15.94,15.87c-5.79,4.59-11.95,8.51-18.33,11.81c-12.74,6.66-26.17,11.14-39.74,14.17
		c-13.59,2.98-27.38,4.42-41.19,4.57c-13.81,0.06-27.66-1.32-41.23-4.45c-13.55-3.16-26.84-7.98-39.3-14.92
		c-6.22-3.47-12.22-7.48-17.85-12.1c-5.61-4.64-10.93-9.84-15.54-15.79c-4.6-5.95-8.62-12.58-11.6-19.83
		c-3.01-7.23-5.03-15.06-5.8-23.13c-0.74-8.06-0.23-16.37,1.49-24.46c1.72-8.09,4.58-15.99,8.46-23.3
		c7.77-14.64,19.07-26.99,31.92-36.76c12.9-9.77,27.42-17.03,42.58-21.95c15.18-4.9,31.03-7.4,46.87-7.8
		c15.84-0.27,31.87,1.79,47.2,6.61c15.3,4.85,29.91,12.35,42.72,22.44c6.38,5.08,12.34,10.72,17.68,16.97
		c5.34,6.24,10.03,13.1,13.89,20.42c3.84,7.34,6.78,15.2,8.62,23.28C419.58,247.54,420.31,255.85,419.8,263.99z M394.73,263.99
		c-1.05-11.28-5.83-21.68-13.06-30.13c-7.3-8.44-16.73-15.09-27.02-20c-10.27-4.96-21.28-8.44-32.52-10.87
		c-11.26-2.41-22.79-3.75-34.48-4.14c-11.69-0.29-23.4,0.61-34.81,2.94c-11.38,2.36-22.47,6.08-32.66,11.36
		c-10.18,5.25-19.43,12.12-26.67,20.63c-7.19,8.51-12.23,18.75-13.77,30.21c-0.73,5.71-0.61,11.63,0.45,17.55
		c1.09,5.9,3.02,11.83,5.87,17.46c2.87,5.61,6.46,11.02,10.75,15.96c4.26,4.96,9.14,9.5,14.45,13.55
		c10.63,8.12,22.95,14.27,35.94,18.4c13.02,4.1,26.73,6.12,40.45,6.29c13.72,0.03,27.49-1.93,40.48-6.17
		c12.97-4.26,25.16-10.75,35.5-19.14c5.15-4.22,9.86-8.85,13.97-13.83c4.11-4.99,7.59-10.34,10.34-15.87
		C393.44,287.06,395.73,275.23,394.73,263.99z"/>
</g>
<path id="KatHoddinott_x5F_1_x5F_" class="st3" d="M449.67,293.01c0,57.65-71.58,104.39-159.88,104.39s-159.88-46.74-159.88-104.39
	s71.58-104.39,159.88-104.39S449.67,235.36,449.67,293.01z"/>
<text id="KatHoddinott"><textPath  xlink:href="#KatHoddinott_x5F_1_x5F_" startOffset="89.7624%">
<tspan  style="font-family:'BebasNeue-Regular'; font-size:33px;">Kat Hoddinott</tspan></textPath>
</text>
</svg>
