<?xml version="1.0" encoding="utf-8"?>
<!-- Generator: Adobe Illustrator 23.0.1, SVG Export Plug-In . SVG Version: 6.00 Build 0)  -->
<svg version="1.1" id="Layer_1" xmlns="http://www.w3.org/2000/svg" xmlns:xlink="http://www.w3.org/1999/xlink" x="0px" y="0px"
	 viewBox="0 0 309.39 245.34" style="enable-background:new 0 0 309.39 245.34;" xml:space="preserve">
<style type="text/css">
	.st0{fill:#AA9179;}
	.st1{fill:#A8D89A;}
	.st2{fill:#F9BD95;}
</style>
<g id="polygon">
	<polygon class="st0" points="84.87,244.43 14.45,122.47 84.87,0.5 225.71,0.5 296.12,122.47 225.71,244.43 	"/>
	<path class="st1" d="M84.62,244.87c-12.72-18.7-25.88-37.64-39.36-57.02C31.79,168.48,18,148.68,4.11,128.44L0,122.44l4.11-5.95
		L84.44,0.25L84.61,0h0.26l140.83,0h0.26l0.17,0.25l79.5,116.72l3.74,5.5l-3.74,5.5l-79.5,116.72l-0.17,0.25l-0.26,0L84.62,244.87z
		 M85.12,244l140.58-0.07l-0.43,0.25l61.33-127.21v10.99L225.27,0.75L225.71,1L84.87,1l0.43-0.25L24.8,128.44V116.5l29.27,62.56
		C64.05,200.33,74.37,222.04,85.12,244z"/>
</g>
<g id="triangle">
	<path class="st2" d="M53.12,60.38c65.61-3.85,131.22-7.7,196.83-11.54c-33.42,51.43-66.84,102.86-100.27,154.29
		C117.49,155.54,85.31,107.96,53.12,60.38z"/>
	<path d="M52.67,60.16c6.67-1.26,13.92-2.43,21.35-3.62c7.46-1.18,15.16-2.36,23.07-3.48c15.82-2.26,32.51-4.28,49.52-5.87
		c17.03-1.58,34.51-2.57,51.92-2.53c8.69-0.01,17.38,0.26,25.96,0.82c4.29,0.28,8.56,0.64,12.8,1.09c4.24,0.45,8.45,0.99,12.62,1.76
		l0.77,0.14l-0.32,0.63l-84.16,164.75l-16.08,31.47l-16.78-31.17c-7.52-13.97-14.81-27.91-21.81-41.6
		c-7.01-13.7-13.71-27.15-20.22-40.12c-6.52-12.99-12.86-25.49-19.24-37.5C65.7,82.92,59.27,71.38,52.67,60.16z M53.57,60.6
		c9.5,12.57,19.16,24.82,28.87,36.59c9.71,11.78,19.47,23.06,29.04,33.87c9.58,10.81,18.97,21.15,28.06,31.25
		c9.09,10.09,17.9,19.95,26.47,29.77l-32.86,0.3L249.53,48.56l0.45,0.77c-4.03,1.25-8.02,2.27-11.99,3.2
		c-3.96,0.94-7.89,1.78-11.8,2.54c-7.82,1.52-15.54,2.75-23.25,3.7c-15.4,1.97-30.72,2.9-46.49,3.24
		c-15.79,0.33-31.91,0.24-48.89-0.1l-26.13-0.59L53.57,60.6z"/>
</g>
</svg>
