<?xml version="1.0" encoding="utf-8"?>
<!-- Generator: Adobe Illustrator 23.0.1, SVG Export Plug-In . SVG Version: 6.00 Build 0)  -->
<svg version="1.1" id="Layer_1" xmlns="http://www.w3.org/2000/svg" xmlns:xlink="http://www.w3.org/1999/xlink" x="0px" y="0px"
	 viewBox="0 0 119 150.74" style="enable-background:new 0 0 119 150.74;" xml:space="preserve">
<style type="text/css">
	.st0{fill:#99D6D3;}
</style>
<g id="skull">
	<path class="st0" d="M17.38,106.57C-4.59,74.45-3.27,36.55,16.15,17.09C32.16,1.05,56.47,1.56,60.74,1.72
		c3.38,0.13,29.61,1.5,45.2,20.6c17.7,21.68,15.9,59.08-7.99,88.25l-6.46,32.59l-18.14,7.07H55.2l-18.45-6.76
		c-3.38-10.04-6.76-20.09-10.15-30.13C23.53,111.08,20.45,108.83,17.38,106.57z"/>
	<path d="M17.02,106.92c-1.8-2.58-3.51-5.12-5.02-7.77c-1.55-2.64-2.93-5.38-4.21-8.16C5.25,85.4,3.23,79.56,1.9,73.55
		c-2.63-12-2.71-24.76,0.93-36.71c1.84-5.95,4.66-11.65,8.52-16.61c3.87-4.95,8.74-9.15,14.23-12.18C31.05,4.99,37,2.88,43.08,1.6
		c6.1-1.25,12.3-1.84,18.56-1.51c6.23,0.42,12.35,1.6,18.27,3.5c5.91,1.92,11.62,4.58,16.76,8.15c5.14,3.55,9.69,8.06,13.14,13.3
		c3.5,5.21,5.92,11.07,7.38,17.12c2.94,12.12,2.14,24.88-1.32,36.67c-3.52,11.81-9.62,22.75-17.54,32.06l-0.01,0.01l0.1-0.22
		l-6.46,32.59l-0.05,0.27l-0.26,0.1l-18.14,7.07l-0.09,0.03h-0.09H55.2h-0.09l-0.08-0.03l-18.45-6.76l-0.23-0.08l-0.08-0.23
		L26.13,113.5l0.18,0.24L17.02,106.92z M17.74,106.23l9.16,6.71l0.13,0.09l0.05,0.15l10.15,30.13l-0.3-0.31l18.45,6.76l-0.17-0.03
		h18.14l-0.18,0.03l18.14-7.07l-0.31,0.37l6.46-32.59l0.02-0.12l0.08-0.1l0.01-0.01c7.43-9.53,13.19-20.38,16.28-32
		c3.12-11.56,3.69-23.91,0.67-35.42c-1.47-5.75-3.93-11.22-7.21-16.1c-3.27-4.9-7.54-9.09-12.41-12.41
		C85.12,7.67,73.24,4.2,61.45,3.43C49.67,3,37.47,5.15,27.13,10.83c-1.29,0.71-2.5,1.54-3.76,2.3c-1.16,0.9-2.38,1.73-3.49,2.68
		l-1.63,1.48c-0.55,0.49-1.1,0.97-1.59,1.52c-1.03,1.04-1.97,2.17-2.9,3.31c-3.64,4.62-6.31,9.98-8.19,15.59
		C1.89,49.01,1.71,61.36,4.05,73.1c1.14,5.89,2.93,11.66,5.25,17.22c1.18,2.77,2.45,5.51,3.9,8.16
		C14.59,101.17,16.18,103.74,17.74,106.23z"/>
</g>
<path d="M17.07,56.14c-3.54,8.3,5.86,24.98,18.14,24.91c12.96-0.08,21.81-18.77,17.53-26.75C47.65,44.81,21.49,45.77,17.07,56.14z"
	/>
<path d="M103.5,56.14c3.54,8.3-5.86,24.98-18.14,24.91C72.4,80.97,63.56,62.28,67.84,54.3C72.92,44.81,99.08,45.77,103.5,56.14z"/>
<g>
	<path d="M40.75,126.06c3.73-0.49,7.46-0.75,11.19-0.91c3.73-0.17,7.46-0.23,11.19-0.22c3.73,0.02,7.46,0.08,11.19,0.26
		c3.73,0.17,7.46,0.41,11.19,0.87v1c-3.73,0.45-7.46,0.69-11.19,0.87c-3.73,0.18-7.46,0.24-11.19,0.26
		c-3.73,0.01-7.46-0.05-11.19-0.22c-3.73-0.16-7.46-0.42-11.19-0.91V126.06z"/>
</g>
<g>
	<path d="M46.48,118.26c0.28,1.36,0.43,2.72,0.53,4.07c0.11,1.36,0.14,2.72,0.14,4.07c-0.03,2.72-0.15,5.43-0.67,8.15h-1
		c-0.52-2.72-0.64-5.43-0.67-8.15c0-1.36,0.04-2.72,0.14-4.07c0.1-1.36,0.25-2.72,0.53-4.07H46.48z"/>
</g>
<g>
	<path d="M52.87,118.26c0.28,1.36,0.43,2.72,0.53,4.07c0.11,1.36,0.14,2.72,0.14,4.07c-0.03,2.72-0.15,5.43-0.67,8.15h-1
		c-0.52-2.72-0.64-5.43-0.67-8.15c0-1.36,0.04-2.72,0.14-4.07c0.1-1.36,0.25-2.72,0.53-4.07H52.87z"/>
</g>
<g>
	<path d="M60,118.41c0.28,1.36,0.43,2.72,0.53,4.07c0.11,1.36,0.14,2.72,0.14,4.07c-0.03,2.72-0.15,5.43-0.67,8.15h-1
		c-0.52-2.72-0.64-5.43-0.67-8.15c0-1.36,0.04-2.72,0.14-4.07c0.1-1.36,0.25-2.72,0.53-4.07H60z"/>
</g>
<g>
	<path d="M66.52,118.41c0.28,1.36,0.43,2.72,0.53,4.07c0.11,1.36,0.14,2.72,0.14,4.07c-0.03,2.72-0.15,5.43-0.67,8.15h-1
		c-0.52-2.72-0.64-5.43-0.67-8.15c0-1.36,0.04-2.72,0.14-4.07c0.1-1.36,0.25-2.72,0.53-4.07H66.52z"/>
</g>
<g>
	<path d="M73.01,118.41c0.28,1.36,0.43,2.72,0.53,4.07c0.11,1.36,0.14,2.72,0.14,4.07c-0.03,2.72-0.15,5.43-0.67,8.15h-1
		c-0.52-2.72-0.64-5.43-0.67-8.15c0-1.36,0.04-2.72,0.14-4.07c0.1-1.36,0.25-2.72,0.53-4.07H73.01z"/>
</g>
<g>
	<path d="M79.51,119.23c0.28,1.36,0.43,2.72,0.53,4.07c0.11,1.36,0.14,2.72,0.14,4.07c-0.03,2.72-0.15,5.43-0.67,8.15h-1
		c-0.52-2.72-0.64-5.43-0.67-8.15c0-1.36,0.04-2.72,0.14-4.07c0.1-1.36,0.25-2.72,0.53-4.07H79.51z"/>
</g>
<path d="M52.13,94.31c0.46-1.73,3.44-12.88,8.82-13.04c4.92-0.15,8.46,8.99,9.59,11.89c1.26,3.25,1.99,5.14,1.15,6.91
	c-2.52,5.28-17.26,5.38-19.95,0C51.01,98.59,51.38,97.11,52.13,94.31z"/>
</svg>
