<?xml version="1.0" encoding="utf-8"?>
<!-- Generator: Adobe Illustrator 23.0.1, SVG Export Plug-In . SVG Version: 6.00 Build 0)  -->
<svg version="1.1" id="Layer_1" xmlns="http://www.w3.org/2000/svg" xmlns:xlink="http://www.w3.org/1999/xlink" x="0px" y="0px"
	 viewBox="0 0 214.46 154.81" style="enable-background:new 0 0 214.46 154.81;" xml:space="preserve">
<style type="text/css">
	.st0{stroke:#FFFFFF;stroke-miterlimit:10;}
	.st1{fill:#FFFFFF;}
</style>
<path id="bckgrd" class="st0" d="M201.96,154.31H12.5c-6.6,0-12-5.4-12-12V12.5c0-6.6,5.4-12,12-12h189.46c6.6,0,12,5.4,12,12
	v129.81C213.96,148.91,208.56,154.31,201.96,154.31z"/>
<path id="questionmark" class="st1" d="M66.01,40.11c-1.25-9.85,24.35-29.36,48.16-24.08c23.38,5.19,39.01,32.93,33.06,45.71
	c-5.98,12.85-32.8,8.41-37.14,22.85c-2.4,8,4.2,14.76,0,19.59c-3.6,4.14-12.69,4.04-17.55,0c-7.8-6.48-6.33-24.49,2.45-33.47
	c10.61-10.84,26.97-3.48,32.24-13.06c3.58-6.5-0.33-16.46-6.12-21.63c-8.77-7.84-23-5.69-30.61,0c-6.58,4.92-6.75,11.38-12.24,12.24
	C73.22,49.07,66.59,44.69,66.01,40.11z"/>
<path id="dot" class="st1" d="M95.4,119.7c3.26-5.7,14.36-6.45,19.18-0.82c2.37,2.77,3.47,7.38,1.63,10.61
	c-3.31,5.83-15.56,6.14-20,0C94.28,126.81,93.68,122.69,95.4,119.7z"/>
</svg>
