<?xml version="1.0" encoding="utf-8"?>
<!-- Generator: Adobe Illustrator 23.0.1, SVG Export Plug-In . SVG Version: 6.00 Build 0)  -->
<svg version="1.1" id="Layer_1" xmlns="http://www.w3.org/2000/svg" xmlns:xlink="http://www.w3.org/1999/xlink" x="0px" y="0px"
	 viewBox="0 0 443.8 443.8" style="enable-background:new 0 0 443.8 443.8;" xml:space="preserve">
<style type="text/css">
	.st0{fill:#4ACEC1;}
	.st1{fill:#000DAA;}
</style>
<rect id="square" x="64.99" y="64.99" transform="matrix(0.7071 0.7071 -0.7071 0.7071 221.8983 -91.9133)" class="st0" width="313.81" height="313.81"/>
<g id="spiral">
	<path class="st1" d="M264.77,51.69c-13,3.68-25.55,7.46-37.62,12.05c-3.03,1.07-6,2.34-8.97,3.5c-1.49,0.56-2.95,1.23-4.41,1.86
		l-4.38,1.87c-5.76,2.66-11.45,5.31-16.95,8.27c-5.55,2.84-10.86,6.04-16.11,9.22c-5.17,3.32-10.28,6.64-15.11,10.28
		c-4.89,3.55-9.54,7.36-14.02,11.25l-3.32,2.97c-1.12,0.97-2.14,2.04-3.21,3.05c-2.18,1.99-4.17,4.14-6.22,6.22
		c-16.02,16.95-28.12,36.56-33.7,57.33c-2.85,10.35-4,21.13-3.37,32.06c0.59,10.92,2.85,21.95,6.48,32.76
		c7.36,21.63,20.02,42.17,35.57,60.38c7.82,9.09,16.4,17.59,25.57,25.39c9.19,7.76,18.97,14.82,29.18,20.92
		c10.18,6.13,20.84,11.28,31.65,15.03c10.78,3.74,21.78,6.02,32.01,6.06c5.1,0.01,10.03-0.44,14.5-1.61
		c4.45-1.15,8.78-2.86,13.07-5.31c8.55-4.91,16.63-12.39,23.69-21.28c7.07-8.91,13.2-19.14,18.44-29.96
		c5.21-10.85,9.65-22.29,13.21-34.05c7.15-23.5,11.09-48.32,11.1-72.59c-0.06-12.09-1.16-24.13-3.98-35.16
		c-1.42-5.49-3.21-10.77-5.55-15.42c-1.14-2.36-2.46-4.49-3.8-6.53c-1.41-1.95-2.87-3.81-4.47-5.37c-1.6-1.54-3.26-2.92-5.22-4.14
		c-1.94-1.23-4.1-2.32-6.44-3.24c-4.69-1.83-10-3.08-15.6-3.71c-11.21-1.29-23.33-0.39-35.26,1.81
		c-11.95,2.24-23.83,5.87-35.14,10.69c-11.27,4.86-22.12,10.85-31.4,18.28c-4.62,3.71-8.83,7.79-12.25,12.2
		c-3.41,4.4-5.92,9.14-7.08,13.89c-0.58,2.35-0.73,4.81-0.69,7.4l0.12,1.96c0.05,0.66,0.18,1.33,0.27,1.99
		c0.13,1.33,0.53,2.68,0.79,4.04c1.41,5.42,3.78,10.88,6.8,16.08c3.06,5.19,6.69,10.15,10.74,14.79c4.07,4.62,8.6,8.87,13.46,12.63
		c2.45,1.84,4.96,3.61,7.58,5.11c2.6,1.55,5.29,2.86,8.02,3.89c5.43,2.14,11.16,2.83,15.55,0.89c2.22-0.97,4.26-2.71,6-4.94
		c1.74-2.23,3.2-4.88,4.41-7.7c1.22-2.82,2.21-5.82,3.02-8.9c0.81-3.08,1.49-6.22,2.02-9.4c1.08-6.37,1.74-12.87,2.1-19.4
		c0.36-6.53,0.48-13.11,0.27-19.67l1-0.09c0.94,6.55,1.59,13.14,1.91,19.77c0.32,6.63,0.35,13.3-0.12,20.01
		c-0.23,3.35-0.63,6.71-1.17,10.07c-0.54,3.36-1.3,6.73-2.38,10.08c-1.08,3.34-2.46,6.68-4.51,9.85c-2.02,3.14-4.81,6.16-8.45,8.21
		c-3.65,2.06-7.82,2.91-11.71,2.95c-0.96-0.03-1.96,0.02-2.91-0.09l-2.84-0.31c-1.83-0.34-3.68-0.68-5.43-1.21l-1.33-0.37
		l-1.29-0.44c-0.85-0.3-1.73-0.58-2.57-0.91c-1.66-0.69-3.34-1.36-4.92-2.16c-3.23-1.52-6.28-3.31-9.25-5.19
		c-11.77-7.68-22.01-17.45-30.17-29.2c-4.03-5.91-7.51-12.37-9.96-19.54c-0.53-1.84-1.16-3.62-1.54-5.55
		c-0.2-0.95-0.44-1.89-0.6-2.87l-0.41-2.95c-0.41-3.96-0.46-8.14,0.22-12.27c1.34-8.22,4.85-15.53,9.05-21.83
		c4.25-6.31,9.24-11.77,14.56-16.67c10.69-9.76,22.65-17.42,35.2-23.7c12.57-6.26,25.76-11.17,39.52-14.61
		c13.76-3.4,28.12-5.35,43.17-4.44c7.52,0.47,15.24,1.74,22.97,4.29c3.86,1.29,7.72,2.95,11.46,5.02c3.75,2.06,7.38,4.65,10.66,7.51
		c3.28,2.87,6.1,6.04,8.7,9.31c1.21,1.66,2.49,3.31,3.54,5.03c0.54,0.85,1.12,1.7,1.62,2.57l1.49,2.6
		c3.88,6.96,6.62,14.13,8.82,21.28c2.18,7.16,3.7,14.34,4.79,21.49c1.09,7.15,1.75,14.28,2.09,21.38
		c0.68,14.2,0.01,28.27-1.63,42.18c-1.64,13.91-4.29,27.67-7.88,41.25c-3.62,13.56-8.14,26.97-14,40.01
		c-5.87,13.03-12.93,25.78-21.89,37.77c-4.49,5.99-9.48,11.77-15.11,17.18c-5.63,5.4-11.91,10.43-18.93,14.75
		c-7.01,4.31-14.9,7.81-23.16,10.07c-8.23,2.3-16.52,3.21-24.56,3.36c-16.14,0.23-31.29-2.84-45.45-7.39
		c-14.17-4.6-27.46-10.74-39.96-17.94c-24.95-14.52-47.03-32.95-66.02-54.44c-9.44-10.79-18.14-22.34-25.67-34.8
		c-7.5-12.47-13.94-25.76-18.79-39.88c-4.81-14.12-8.02-29.08-8.92-44.46c-0.93-15.35,0.59-31.12,4.74-46.15l0.79-2.81l0.4-1.4
		l0.46-1.38l1.87-5.51c0.67-1.82,1.42-3.59,2.14-5.38c0.7-1.8,1.52-3.54,2.34-5.28c0.84-1.73,1.58-3.51,2.51-5.18l2.72-5.05
		c0.94-1.66,1.95-3.27,2.93-4.9c0.5-0.81,0.98-1.63,1.49-2.43l1.58-2.36c8.41-12.61,18.61-23.65,29.73-33.23
		c11.19-9.51,23.36-17.56,36.15-24.01c6.36-3.3,12.93-6.08,19.53-8.64l5-1.79l2.5-0.87l2.53-0.79l5.05-1.55
		c1.69-0.48,3.4-0.91,5.09-1.37c3.38-0.94,6.82-1.63,10.22-2.38c1.7-0.38,3.43-0.66,5.14-0.96l5.14-0.87
		c6.88-0.97,13.76-1.7,20.64-1.96c13.76-0.51,27.43,0.21,40.74,2.86L264.77,51.69z"/>
</g>
</svg>
