<?xml version="1.0" encoding="utf-8"?>
<!-- Generator: Adobe Illustrator 23.0.1, SVG Export Plug-In . SVG Version: 6.00 Build 0)  -->
<svg version="1.1" id="Layer_1" xmlns="http://www.w3.org/2000/svg" xmlns:xlink="http://www.w3.org/1999/xlink" x="0px" y="0px"
	 viewBox="0 0 413.43 413.43" style="enable-background:new 0 0 413.43 413.43;" xml:space="preserve">
<style type="text/css">
	.st0{fill:#CAE1E5;}
	.st1{fill:#86BA7D;}
	.st2{fill:#FFFFFF;}
	.st3{fill:#82542E;}
	.st4{fill:#68BC80;}
	.st5{opacity:0.5;fill:#FFFFFF;}
</style>
<circle id="circle" class="st0" cx="206.71" cy="206.71" r="206.71"/>
<path id="apple" class="st1" d="M176.31,145.58c-7.35-3.5-16.33-7.06-26.75-9.74c-10.54-2.71-20.06-3.89-28.06-4.31
	c-4.56,2.46-14.05,8.5-21.3,21.09c-10.57,18.36-8.89,37.65-8.3,42.76c0.67,16.8,3.85,45.8,18.45,76.32
	c7.97,16.66,17.14,29.15,24.8,37.97c6.62,1.89,14.24,3.48,22.71,4.25c18.24,1.66,33.78-1.08,45.2-4.33
	c9.61,3.38,23.21,6.87,39.67,7.04c17.53,0.18,31.95-3.48,41.89-6.95c6.45-10.47,14.91-26.71,20.37-48.26
	c10.3-40.61,11.9-107.76-18.45-126.66c-5.19-3.23-18.25-9.38-41.51,0c-5.67,3.61-11.34,7.22-17.01,10.84
	C210.79,145.59,193.55,145.59,176.31,145.58z"/>
<g>
	<line class="st2" x1="209.73" y1="108.53" x2="206.71" y2="145.02"/>
	<polygon class="st3" points="211.97,108.71 212.2,145.47 201.23,144.57 207.48,108.34 	"/>
</g>
<polygon class="st4" points="206.71,121.37 188.12,95.51 145.82,103.18 185.93,127.73 "/>
<path class="st5" d="M115.27,150.78c-2.43,3.85-5.15,8.95-7.35,15.23c-2.66,7.6-3.66,14.41-4.01,19.54c0.45,5,0.89,9.99,1.34,14.99
	c3.34-0.01,6.68-0.01,10.02-0.02c0.27-7.1,1.3-16.12,4.16-26.21c2.16-7.6,4.87-14.06,7.48-19.29
	C123.03,153.61,119.15,152.2,115.27,150.78z"/>
<path class="st5" d="M106.05,206.69c3.43,0.01,6.85,0.02,10.28,0.03l4.23,10.2l-11.64,2.65
	C107.96,215.27,107.01,210.98,106.05,206.69z"/>
</svg>
