<?xml version="1.0" encoding="utf-8"?>
<!-- Generator: Adobe Illustrator 23.0.1, SVG Export Plug-In . SVG Version: 6.00 Build 0)  -->
<svg version="1.1" id="Layer_1" xmlns="http://www.w3.org/2000/svg" xmlns:xlink="http://www.w3.org/1999/xlink" x="0px" y="0px"
	 viewBox="0 0 215.1 261.27" style="enable-background:new 0 0 215.1 261.27;" xml:space="preserve">
<style type="text/css">
	.st0{fill:#B2AD8E;}
	.st1{fill:#127FAF;}
	.st2{fill:#FFFFFF;}
</style>
<ellipse id="backcircle" class="st0" cx="107.46" cy="130.64" rx="106.81" ry="130.64"/>
<g id="bluemountains">
	<polygon class="st1" points="117.84,33.08 52.44,132.15 29.25,99.24 0.66,179.42 214.27,179.42 	"/>
	<path class="st2" d="M117.83,40.93c-9.8,15.3-19.89,30.3-30.72,45.36c-10.81,15.06-22.37,30.34-34.26,46.13l-0.4,0.53l-0.43-0.52
		L26.2,101.39l6.57-0.9L1.13,179.58l-0.47-0.67c17.8-2.16,35.6-3.27,53.4-4.05c17.8-0.76,35.6-1.08,53.4-1.05
		c17.8,0.02,35.6,0.38,53.4,1.13c17.8,0.8,35.6,1.88,53.4,3.97l-0.42,0.78c-17.06-23.67-33.8-46.83-49.78-69.77
		C148.07,86.98,132.81,64.11,117.83,40.93z M117.84,25.23c17.17,25.6,34.06,51.51,50.2,77.34c16.16,25.84,31.57,51.46,46.65,76.57
		l0.41,0.68l-0.83,0.1c-17.8,2.09-35.6,3.17-53.4,3.97c-17.8,0.75-35.6,1.1-53.4,1.13c-17.8,0.04-35.6-0.29-53.4-1.05
		c-17.8-0.78-35.6-1.89-53.4-4.05L0,179.84l0.18-0.59l25.55-81.26l2.47-7.85l4.11,6.95l20.54,34.77l-0.83,0.01
		c9.91-17.23,20.15-34.98,31.14-52.94C94.13,60.98,105.84,42.95,117.84,25.23z"/>
</g>
<path id="blackmountains" d="M0.66,176.61l43.15-67.18l7.92,14.47l28.86,52.7l37.15-105.41l40.66,105.41l26.88-52.7l29,52.7
	c-32.52,1.71-66.58,2.72-102.04,2.8C73.32,179.51,36.07,178.48,0.66,176.61z"/>
</svg>
